<svg width="39" height="40" viewBox="0 0 39 40" fill="none" xmlns="http://www.w3.org/2000/svg">
<path d="M4.45428 20.038C4.45428 12.8899 4.45428 9.31579 6.67492 7.09514C8.89557 4.87451 12.4696 4.87451 19.6177 4.87451C26.7658 4.87451 30.3399 4.87451 32.5606 7.09514C34.7812 9.31579 34.7812 12.8899 34.7812 20.038C34.7812 27.186 34.7812 30.7601 32.5606 32.9809C30.3399 35.2014 26.7658 35.2014 19.6177 35.2014C12.4696 35.2014 8.89557 35.2014 6.67492 32.9809C4.45428 30.7601 4.45428 27.186 4.45428 20.038Z" stroke="#FFF7EF" stroke-width="2.39423" stroke-linejoin="round"/>
<path d="M27.4813 13.6953H22.7808C21.1147 13.6953 19.7605 15.0394 19.7482 16.7055L19.6121 35.0845M16.5564 23.2329H24.2222" stroke="#FFF7EF" stroke-width="2.39423" stroke-linecap="round" stroke-linejoin="round"/>
</svg>
