<svg width="39" height="40" viewBox="0 0 39 40" fill="none" xmlns="http://www.w3.org/2000/svg">
<path d="M4.22345 20.038C4.22345 12.8899 4.22345 9.31579 6.44408 7.09514C8.66473 4.87451 12.2388 4.87451 19.3869 4.87451C26.535 4.87451 30.1091 4.87451 32.3298 7.09514C34.5504 9.31579 34.5504 12.8899 34.5504 20.038C34.5504 27.186 34.5504 30.7601 32.3298 32.9809C30.1091 35.2014 26.535 35.2014 19.3869 35.2014C12.2388 35.2014 8.66473 35.2014 6.44408 32.9809C4.22345 30.7601 4.22345 27.186 4.22345 20.038Z" stroke="#FFF7EF" stroke-width="2.39423" stroke-linejoin="round"/>
<path d="M26.5696 20.0382C26.5696 24.0051 23.3538 27.2209 19.3869 27.2209C15.42 27.2209 12.2042 24.0051 12.2042 20.0382C12.2042 16.0713 15.42 12.8555 19.3869 12.8555C23.3538 12.8555 26.5696 16.0713 26.5696 20.0382Z" stroke="#FFF7EF" stroke-width="2.39423"/>
<path d="M28.1775 11.2593H28.1638" stroke="#FFF7EF" stroke-width="3.19231" stroke-linecap="round" stroke-linejoin="round"/>
</svg>
