<svg width="39" height="40" viewBox="0 0 39 40" fill="none" xmlns="http://www.w3.org/2000/svg">
<path d="M11.8677 16.8457V28.0188" stroke="#FFF7EF" stroke-width="2.39423" stroke-linecap="round" stroke-linejoin="round"/>
<path d="M18.2523 21.6342V28.0188M18.2523 21.6342C18.2523 18.9895 20.3961 16.8457 23.0408 16.8457C25.6854 16.8457 27.8292 18.9895 27.8292 21.6342V28.0188M18.2523 21.6342V16.8457" stroke="#FFF7EF" stroke-width="2.39423" stroke-linecap="round" stroke-linejoin="round"/>
<path d="M11.8799 12.0571H11.8661" stroke="#FFF7EF" stroke-width="3.19231" stroke-linecap="round" stroke-linejoin="round"/>
<path d="M4.685 20.038C4.685 12.8899 4.685 9.31579 6.90563 7.09514C9.12628 4.87451 12.7003 4.87451 19.8485 4.87451C26.9965 4.87451 30.5706 4.87451 32.7914 7.09514C35.0119 9.31579 35.0119 12.8899 35.0119 20.038C35.0119 27.186 35.0119 30.7601 32.7914 32.9809C30.5706 35.2014 26.9965 35.2014 19.8485 35.2014C12.7003 35.2014 9.12628 35.2014 6.90563 32.9809C4.685 30.7601 4.685 27.186 4.685 20.038Z" stroke="#FFF7EF" stroke-width="2.39423" stroke-linejoin="round"/>
</svg>
