<svg width="39" height="40" viewBox="0 0 39 40" fill="none" xmlns="http://www.w3.org/2000/svg">
<path d="M3.99084 20.0369C3.99084 12.8884 3.99084 9.31411 6.21161 7.09333C8.43239 4.87256 12.0067 4.87256 19.1552 4.87256C26.3038 4.87256 29.878 4.87256 32.0989 7.09333C34.3196 9.31411 34.3196 12.8884 34.3196 20.0369C34.3196 27.1854 34.3196 30.7597 32.0989 32.9806C29.878 35.2013 26.3038 35.2013 19.1552 35.2013C12.0067 35.2013 8.43239 35.2013 6.21161 32.9806C3.99084 30.7597 3.99084 27.1854 3.99084 20.0369Z" stroke="#FFF7EF" stroke-width="1.5" stroke-linecap="round" stroke-linejoin="round"/>
<path d="M11.174 28.0182L17.868 21.3243M17.868 21.3243L11.174 12.0557H15.608L20.4425 18.7495M17.868 21.3243L22.7024 28.0182H27.1364L20.4425 18.7495M27.1364 12.0557L20.4425 18.7495" stroke="#FFF7EF" stroke-width="1.5" stroke-linecap="round" stroke-linejoin="round"/>
</svg>
