<svg width="40" height="40" viewBox="0 0 40 40" fill="none" xmlns="http://www.w3.org/2000/svg">
<path d="M20.0793 33.6053C22.9679 33.6053 25.7379 33.3199 28.305 32.7967C31.5115 32.1431 33.1148 31.8162 34.5778 29.9351C36.0409 28.0541 36.0409 25.8948 36.0409 21.5759V18.5001C36.0409 14.1813 36.0409 12.0219 34.5778 10.1409C33.1148 8.2598 31.5115 7.93299 28.305 7.27935C25.7379 6.75605 22.9679 6.4707 20.0793 6.4707C17.1908 6.4707 14.4208 6.75605 11.8537 7.27935C8.64714 7.93299 7.04388 8.2598 5.58083 10.1409C4.1178 12.0219 4.1178 14.1813 4.1178 18.5001V21.5759C4.1178 25.8948 4.1178 28.0541 5.58083 29.9351C7.04388 31.8162 8.64714 32.1431 11.8537 32.7967C14.4208 33.3199 17.1908 33.6053 20.0793 33.6053Z" stroke="#FFF7EF" stroke-width="2.39423"/>
<path d="M26.4034 20.5376C26.1665 21.5046 24.9062 22.1991 22.3856 23.5882C19.6439 25.0988 18.2731 25.8543 17.1628 25.5633C16.7867 25.4646 16.4404 25.2913 16.1495 25.0562C15.2908 24.362 15.2908 22.9207 15.2908 20.0382C15.2908 17.1557 15.2908 15.7144 16.1495 15.0202C16.4404 14.785 16.7867 14.6117 17.1628 14.5132C18.2731 14.2221 19.6439 14.9775 22.3856 16.4882C24.9062 17.8773 26.1665 18.5718 26.4034 19.5388C26.484 19.8679 26.484 20.2085 26.4034 20.5376Z" stroke="#FFF7EF" stroke-width="2.39423" stroke-linejoin="round"/>
</svg>
