<svg width="137" height="31" viewBox="0 0 137 31" fill="none" xmlns="http://www.w3.org/2000/svg">
<g opacity="0.6">
<path d="M33.4972 7.28961H36.6528V22.598H33.4972V7.28961Z" fill="#1D2130"/>
<path d="M38.4199 17.3539C38.4199 16.2525 38.7446 15.1759 39.3528 14.2606C39.961 13.3453 40.8253 12.6325 41.8362 12.2124C42.8471 11.7924 43.9591 11.6842 45.0312 11.9014C46.1032 12.1185 47.0872 12.6514 47.8582 13.4325C48.6292 14.2135 49.1527 15.2075 49.3622 16.2885C49.5717 17.3694 49.4578 18.4887 49.035 19.5045C48.6122 20.5202 47.8995 21.3866 46.9872 21.9939C46.0749 22.6012 45.0041 22.9221 43.9106 22.9158C43.1853 22.9215 42.4662 22.7813 41.7954 22.5034C41.1246 22.2255 40.5157 21.8155 40.0042 21.2975C39.4928 20.7795 39.0893 20.1638 38.8172 19.4866C38.5452 18.8094 38.4101 18.0844 38.4199 17.3539ZM46.3299 17.3539C46.3175 16.8791 46.1664 16.4185 45.8954 16.0297C45.6244 15.641 45.2457 15.3413 44.8065 15.1682C44.3674 14.9951 43.8873 14.9562 43.4263 15.0565C42.9653 15.1567 42.5439 15.3916 42.2148 15.7318C41.8857 16.072 41.6634 16.5024 41.5759 16.9691C41.4884 17.4359 41.5394 17.9182 41.7226 18.3559C41.9059 18.7936 42.2132 19.1671 42.6061 19.4298C42.999 19.6925 43.46 19.8327 43.9317 19.8329C44.2527 19.8392 44.5717 19.7787 44.8685 19.6553C45.1654 19.5318 45.4337 19.348 45.6568 19.1153C45.8799 18.8827 46.053 18.6062 46.1652 18.3031C46.2774 18 46.3263 17.6769 46.3089 17.3539H46.3299Z" fill="#1D2130"/>
<path d="M61.887 12.1099V22.0788C61.887 25.5961 59.1521 27.0898 56.3857 27.0898C55.41 27.1705 54.4312 26.9752 53.5596 26.526C52.6881 26.0768 51.9583 25.3915 51.4525 24.5473L54.1137 23.0005C54.3294 23.4384 54.6724 23.7997 55.0971 24.0363C55.5218 24.2729 56.008 24.3735 56.4909 24.3248C56.7985 24.363 57.1108 24.3322 57.4052 24.2347C57.6997 24.1372 57.9691 23.9753 58.1942 23.7607C58.4194 23.5462 58.5946 23.2841 58.7075 22.9934C58.8203 22.7026 58.868 22.3903 58.8471 22.0788V21.1148C58.4799 21.5632 58.0139 21.9192 57.4863 22.1546C56.9586 22.39 56.3837 22.4983 55.8072 22.4708C54.4123 22.4708 53.0746 21.9128 52.0883 20.9194C51.102 19.926 50.5479 18.5787 50.5479 17.1738C50.5479 15.769 51.102 14.4216 52.0883 13.4283C53.0746 12.4349 54.4123 11.8768 55.8072 11.8768C56.3837 11.8494 56.9586 11.9576 57.4863 12.193C58.0139 12.4284 58.4799 12.7844 58.8471 13.2328V12.1734L61.887 12.1099ZM58.8471 17.142C58.8681 16.6352 58.738 16.1336 58.4737 15.7018C58.2094 15.27 57.8228 14.9276 57.3638 14.7189C56.9048 14.5101 56.3942 14.4444 55.8978 14.5302C55.4014 14.616 54.9418 14.8494 54.5781 15.2004C54.2145 15.5514 53.9634 16.0039 53.8571 16.4998C53.7509 16.9957 53.7944 17.5122 53.9819 17.983C54.1695 18.4538 54.4927 18.8573 54.9098 19.1417C55.3269 19.426 55.8189 19.5782 56.3226 19.5787C56.6513 19.6025 56.9812 19.5567 57.2912 19.4441C57.6012 19.3315 57.8843 19.1547 58.1222 18.9251C58.3601 18.6954 58.5475 18.4181 58.6724 18.111C58.7972 17.8039 58.8568 17.4738 58.8471 17.142Z" fill="#1D2130"/>
<path d="M63.6646 17.3539C63.6646 16.2534 63.9887 15.1777 64.596 14.2628C65.2032 13.3479 66.0663 12.6351 67.076 12.2144C68.0857 11.7938 69.1966 11.6842 70.2681 11.8997C71.3396 12.1152 72.3235 12.6459 73.0954 13.4248C73.8673 14.2037 74.3924 15.1958 74.6043 16.2754C74.8162 17.3549 74.7053 18.4736 74.2857 19.4897C73.8662 20.5058 73.1567 21.3737 72.2472 21.9836C71.3377 22.5934 70.269 22.9179 69.1763 22.9158C68.4497 22.9229 67.7289 22.7838 67.0563 22.5066C66.3837 22.2295 65.7728 21.8199 65.2595 21.3019C64.7461 20.7839 64.3406 20.1678 64.0667 19.4899C63.7929 18.812 63.6561 18.0858 63.6646 17.3539ZM71.5746 17.3539C71.5621 16.8786 71.4107 16.4176 71.1393 16.0286C70.8679 15.6397 70.4885 15.34 70.0487 15.1672C69.609 14.9944 69.1283 14.9562 68.6671 15.0573C68.2058 15.1584 67.7845 15.3944 67.4558 15.7357C67.1271 16.0769 66.9057 16.5083 66.8194 16.9757C66.733 17.4431 66.7856 17.9258 66.9704 18.3632C67.1552 18.8007 67.4641 19.1735 67.8584 19.435C68.2527 19.6964 68.7148 19.8348 69.1868 19.8329C69.5079 19.8392 69.8269 19.7787 70.1237 19.6553C70.4205 19.5318 70.6889 19.348 70.912 19.1153C71.1351 18.8827 71.3082 18.6062 71.4204 18.3031C71.5326 18 71.5815 17.6769 71.5641 17.3539H71.5746Z" fill="#1D2130"/>
<path d="M76.1502 9.30242C76.1502 8.92945 76.26 8.56486 76.4658 8.25475C76.6715 7.94465 76.9639 7.70295 77.306 7.56022C77.6482 7.41749 78.0246 7.38015 78.3878 7.45291C78.751 7.52567 79.0846 7.70527 79.3465 7.969C79.6083 8.23272 79.7866 8.56873 79.8589 8.93452C79.9311 9.30032 79.894 9.67948 79.7523 10.0241C79.6106 10.3686 79.3706 10.6631 79.0627 10.8703C78.7548 11.0776 78.3928 11.1882 78.0225 11.1882C77.5277 11.1826 77.0546 10.9822 76.7047 10.6297C76.3547 10.2773 76.1557 9.80083 76.1502 9.30242ZM76.4553 12.1098H79.6109V22.5979H76.4553V12.1098Z" fill="#1D2130"/>
<path d="M93.1167 17.3539C93.1521 18.0515 93.0501 18.7491 92.8167 19.4068C92.5834 20.0645 92.2231 20.6692 91.7568 21.1861C91.2905 21.7031 90.7273 22.122 90.0996 22.4188C89.4719 22.7157 88.7921 22.8846 88.0993 22.9158C87.5115 22.9552 86.9223 22.8604 86.3759 22.6384C85.8295 22.4165 85.34 22.0731 84.9437 21.6339V26.8144H81.7882V12.1099H84.9437V13.0952C85.3405 12.6573 85.8304 12.3155 86.3769 12.0953C86.9234 11.8752 87.5122 11.7824 88.0993 11.8239C88.7893 11.8552 89.4664 12.023 90.092 12.3179C90.7175 12.6127 91.2793 13.0288 91.7452 13.5423C92.2111 14.0558 92.572 14.6567 92.8074 15.3107C93.0427 15.9647 93.1478 16.659 93.1167 17.3539ZM89.9611 17.3539C89.9487 16.8619 89.7924 16.3845 89.5117 15.9816C89.231 15.5787 88.8385 15.2681 88.3833 15.0889C87.9282 14.9097 87.4306 14.8698 86.953 14.9742C86.4755 15.0786 86.0391 15.3227 85.6986 15.6758C85.3582 16.0289 85.1288 16.4753 85.0392 16.9592C84.9496 17.443 85.0038 17.9428 85.195 18.3957C85.3862 18.8487 85.7059 19.2347 86.114 19.5055C86.5222 19.7762 87.0006 19.9196 87.4893 19.9177C87.824 19.932 88.1579 19.8749 88.4692 19.7501C88.7805 19.6253 89.0621 19.4356 89.2955 19.1936C89.5289 18.9515 89.7088 18.6625 89.8235 18.3454C89.9383 18.0284 89.9851 17.6905 89.9611 17.3539Z" fill="#1D2130"/>
<path d="M102.72 19.4515C102.72 21.867 100.616 22.8946 98.3865 22.8946C97.477 22.977 96.5639 22.7829 95.7651 22.3372C94.9663 21.8915 94.3185 21.2147 93.9056 20.3944L96.6194 18.8477C96.7269 19.2257 96.96 19.555 97.2798 19.7807C97.5995 20.0063 97.9865 20.1145 98.376 20.0872C99.1228 20.0872 99.5015 19.8541 99.5015 19.4303C99.5015 18.2756 94.3789 18.89 94.3789 15.2563C94.3789 12.968 96.2933 11.8238 98.4602 11.8238C99.2838 11.7867 100.102 11.9749 100.828 12.3685C101.554 12.762 102.161 13.3463 102.583 14.0592L99.8697 15.4999C99.7498 15.2266 99.5539 14.9942 99.3056 14.8306C99.0573 14.667 98.7673 14.5794 98.4707 14.5783C97.9237 14.5783 97.5976 14.7901 97.5976 15.1609C97.5976 16.3687 102.72 15.5741 102.72 19.4515Z" fill="#1D2130"/>
<path d="M114.154 12.1099V22.598H110.998V21.6128C110.64 22.0489 110.185 22.394 109.669 22.6204C109.154 22.8467 108.593 22.9479 108.032 22.9158C105.928 22.9158 104.13 21.4009 104.13 18.5723V12.1099H107.285V18.0955C107.26 18.3458 107.29 18.5985 107.371 18.8361C107.453 19.0738 107.585 19.2908 107.758 19.4721C107.931 19.6534 108.141 19.7947 108.374 19.8863C108.606 19.9779 108.856 20.0175 109.105 20.0025C110.241 20.0025 111.04 19.3244 111.04 17.8837V12.1099H114.154Z" fill="#1D2130"/>
<path d="M132.036 16.1568V22.5979H128.88V16.4322C128.88 15.3728 128.386 14.716 127.386 14.716C126.387 14.716 125.756 15.447 125.756 16.6865V22.5979H122.6V16.4322C122.6 15.3728 122.106 14.716 121.107 14.716C120.107 14.716 119.476 15.447 119.476 16.6865V22.5979H116.321V12.1099H119.476V13.0739C119.803 12.648 120.23 12.3107 120.718 12.0925C121.207 11.8742 121.741 11.7819 122.274 11.8238C122.808 11.7958 123.34 11.908 123.817 12.1495C124.295 12.3909 124.702 12.7533 124.999 13.201C125.345 12.7332 125.804 12.3616 126.332 12.1207C126.86 11.8799 127.44 11.7777 128.017 11.8238C130.479 11.8238 132.036 13.54 132.036 16.1568Z" fill="#1D2130"/>
<path d="M14.7004 4.53517V0.0327148H0.605469V30.9672H14.7004V26.4648C11.8131 26.4648 9.04397 25.3096 7.00231 23.2533C4.96064 21.197 3.81365 18.408 3.81365 15.5C3.81365 12.5919 4.96064 9.80299 7.00231 7.74669C9.04397 5.69039 11.8131 4.53517 14.7004 4.53517Z" fill="#1D2130"/>
<path d="M14.7004 4.53517V26.4648C17.5878 26.4648 20.3568 25.3096 22.3985 23.2533C24.4401 21.197 25.5871 18.408 25.5871 15.5C25.5871 12.5919 24.4401 9.80299 22.3985 7.74669C20.3568 5.69039 17.5878 4.53517 14.7004 4.53517Z" fill="#1D2130"/>
<path d="M134.686 12.0463C135.964 12.0463 137 11.0028 137 9.71562C137 8.42842 135.964 7.38493 134.686 7.38493C133.408 7.38493 132.372 8.42842 132.372 9.71562C132.372 11.0028 133.408 12.0463 134.686 12.0463Z" fill="#1D2130"/>
</g>
</svg>
