<svg width="124" height="25" viewBox="0 0 124 25" fill="none" xmlns="http://www.w3.org/2000/svg">
<g opacity="0.6">
<path d="M40.1963 20.1889C39.574 20.2224 38.9585 20.0466 38.4491 19.6899C38.2362 19.5332 38.065 19.3273 37.9501 19.0901C37.8353 18.8528 37.7803 18.5914 37.79 18.3283V8.69296C37.7849 8.65217 37.7892 8.61076 37.8027 8.57189C37.8161 8.53301 37.8383 8.4977 37.8676 8.46863C37.8968 8.43957 37.9324 8.41751 37.9715 8.40415C38.0106 8.39079 38.0523 8.38648 38.0934 8.39153H39.851C40.0498 8.39153 40.144 8.49548 40.144 8.69296V17.5799C40.144 17.9749 40.3218 18.1724 40.688 18.1724C40.8433 18.1788 40.9985 18.1612 41.1484 18.1204C41.3576 18.1204 41.4727 18.1828 41.4832 18.3699L41.6401 19.6692C41.6476 19.707 41.6469 19.7461 41.638 19.7837C41.6291 19.8212 41.6121 19.8565 41.5883 19.887C41.5645 19.9176 41.5344 19.9427 41.5001 19.9607C41.4657 19.9787 41.4278 19.9891 41.389 19.9914C41.004 20.1177 40.6017 20.1843 40.1963 20.1889Z" fill="#1D2130"/>
<path d="M50.0832 19.0768C49.2 19.8017 48.0902 20.1983 46.9445 20.1983C45.7989 20.1983 44.689 19.8017 43.8058 19.0768C43.0295 18.2982 42.594 17.2467 42.594 16.1508C42.594 15.055 43.0295 14.0034 43.8058 13.2249C44.6907 12.5036 45.7999 12.1095 46.9445 12.1095C48.0891 12.1095 49.1983 12.5036 50.0832 13.2249C50.8416 14.0106 51.265 15.057 51.265 16.1456C51.265 17.2342 50.8416 18.2807 50.0832 19.0664V19.0768ZM45.4589 17.7047C45.8687 18.0736 46.402 18.2779 46.955 18.2779C47.508 18.2779 48.0412 18.0736 48.4511 17.7047C48.822 17.281 49.0264 16.7384 49.0264 16.1768C49.0264 15.6152 48.822 15.0726 48.4511 14.6489C48.0412 14.28 47.508 14.0757 46.955 14.0757C46.402 14.0757 45.8687 14.28 45.4589 14.6489C45.0879 15.0726 44.8836 15.6152 44.8836 16.1768C44.8836 16.7384 45.0879 17.281 45.4589 17.7047Z" fill="#1D2130"/>
<path d="M60.9432 12.3725C61.142 12.3725 61.2361 12.4764 61.2361 12.6739V20.1265C61.2544 20.6295 61.1596 21.1302 60.9588 21.5923C60.7579 22.0544 60.4559 22.4662 60.0748 22.7978C59.2288 23.5144 58.1409 23.8858 57.0302 23.8372C56.027 23.8722 55.0373 23.6001 54.1949 23.0577C53.8353 22.823 53.528 22.5174 53.2922 22.1597C53.0564 21.8021 52.8972 21.4002 52.8244 20.9788C52.8244 20.7709 52.8244 20.6774 53.1068 20.6774H54.8645C54.9392 20.6799 55.0115 20.7038 55.0727 20.7462C55.134 20.7887 55.1816 20.8478 55.2098 20.9165C55.3238 21.2321 55.551 21.4949 55.848 21.6544C56.2099 21.8399 56.6126 21.9328 57.0198 21.9247C57.2654 21.9381 57.5113 21.9027 57.743 21.8206C57.9748 21.7385 58.1877 21.6113 58.3694 21.4466C58.5354 21.2742 58.6646 21.0702 58.7491 20.8469C58.8336 20.6236 58.8717 20.3856 58.8612 20.1473V19.4925C58.2318 19.9523 57.4659 20.1901 56.685 20.1681C56.1384 20.1878 55.5935 20.0977 55.0829 19.903C54.5723 19.7083 54.1066 19.4131 53.7137 19.0351C52.9594 18.2599 52.5377 17.2238 52.5377 16.1456C52.5377 15.0673 52.9594 14.0313 53.7137 13.256C54.1085 12.8814 54.5748 12.589 55.0851 12.3962C55.5954 12.2034 56.1394 12.1141 56.685 12.1334C57.4885 12.1123 58.275 12.3655 58.9135 12.8506V12.6843C58.9087 12.6445 58.9128 12.6041 58.9257 12.5661C58.9386 12.528 58.9598 12.4933 58.9879 12.4645C59.0159 12.4356 59.0501 12.4133 59.0879 12.3992C59.1257 12.3851 59.1662 12.3795 59.2064 12.3829L60.9432 12.3725ZM56.8838 18.3179C57.1533 18.3262 57.4214 18.2756 57.6691 18.1696C57.9167 18.0637 58.138 17.9049 58.3171 17.7047C58.6649 17.2584 58.8537 16.71 58.8537 16.1456C58.8537 15.5811 58.6649 15.0327 58.3171 14.5864C58.1386 14.3889 57.9187 14.2325 57.6729 14.1284C57.4271 14.0242 57.1613 13.9748 56.8942 13.9836C56.6216 13.9751 56.3503 14.0255 56.0992 14.1314C55.8481 14.2373 55.6232 14.3961 55.44 14.5968C55.0546 15.0237 54.852 15.583 54.875 16.1559C54.8561 16.7233 55.0542 17.2766 55.4295 17.7047C55.6132 17.9049 55.8382 18.0633 56.0892 18.1692C56.3402 18.275 56.6112 18.3258 56.8838 18.3179Z" fill="#1D2130"/>
<path d="M70.2651 19.0767C69.3802 19.7979 68.271 20.1921 67.1264 20.1921C65.9818 20.1921 64.8726 19.7979 63.9877 19.0767C63.2286 18.2892 62.8049 17.2411 62.8049 16.1508C62.8049 15.0605 63.2286 14.0123 63.9877 13.2248C64.8734 12.5054 65.9823 12.1124 67.1264 12.1124C68.2705 12.1124 69.3793 12.5054 70.2651 13.2248C71.0235 14.0105 71.4469 15.057 71.4469 16.1456C71.4469 17.2341 71.0235 18.2806 70.2651 19.0663V19.0767ZM65.6303 17.7047C65.8308 17.8942 66.0673 18.0424 66.3259 18.1405C66.5845 18.2386 66.8601 18.2848 67.1368 18.2764C67.4118 18.2834 67.6855 18.2366 67.9422 18.1385C68.1989 18.0404 68.4336 17.893 68.633 17.7047C68.9979 17.2781 69.1982 16.7365 69.1982 16.1767C69.1982 15.6169 68.9979 15.0754 68.633 14.6488C68.4336 14.4605 68.1989 14.3131 67.9422 14.215C67.6855 14.1169 67.4118 14.07 67.1368 14.0771C66.8601 14.0687 66.5845 14.1148 66.3259 14.213C66.0673 14.3111 65.8308 14.4592 65.6303 14.6488C65.2654 15.0754 65.065 15.6169 65.065 16.1767C65.065 16.7365 65.2654 17.2781 65.6303 17.7047Z" fill="#1D2130"/>
<path d="M75.2243 10.6055C74.9477 10.846 74.5927 10.9786 74.2252 10.9786C73.8576 10.9786 73.5026 10.846 73.226 10.6055C73.1006 10.488 73.0007 10.3462 72.9324 10.1889C72.8641 10.0316 72.8289 9.86213 72.8289 9.69084C72.8289 9.51955 72.8641 9.35007 72.9324 9.19278C73.0007 9.03549 73.1006 8.89372 73.226 8.77616C73.5054 8.54168 73.8594 8.41304 74.2252 8.41304C74.5909 8.41304 74.9449 8.54168 75.2243 8.77616C75.3497 8.89372 75.4496 9.03549 75.5179 9.19278C75.5862 9.35007 75.6214 9.51955 75.6214 9.69084C75.6214 9.86213 75.5862 10.0316 75.5179 10.1889C75.4496 10.3462 75.3497 10.488 75.2243 10.6055ZM75.444 20.1889C74.8221 20.2192 74.2076 20.0437 73.6968 19.69C73.4872 19.5309 73.3189 19.3243 73.2061 19.0874C73.0932 18.8505 73.0391 18.5903 73.0481 18.3284V12.674C73.043 12.6332 73.0474 12.5918 73.0608 12.5529C73.0743 12.514 73.0965 12.4787 73.1257 12.4496C73.155 12.4206 73.1905 12.3985 73.2297 12.3852C73.2688 12.3718 73.3105 12.3675 73.3515 12.3725H75.1092C75.308 12.3725 75.4022 12.4765 75.4022 12.674V17.58C75.4022 17.975 75.58 18.1725 75.9358 18.1725C76.0944 18.1781 76.253 18.1606 76.4066 18.1205C76.6158 18.1205 76.7309 18.1828 76.7413 18.3699L76.8983 19.6692C76.9058 19.7071 76.9051 19.7461 76.8962 19.7837C76.8873 19.8213 76.8703 19.8565 76.8465 19.8871C76.8227 19.9176 76.7926 19.9427 76.7582 19.9607C76.7239 19.9787 76.686 19.9892 76.6472 19.9914C76.2588 20.1185 75.8529 20.1851 75.444 20.1889Z" fill="#1D2130"/>
<path d="M83.3641 12.1231C83.9131 12.1015 84.4609 12.1898 84.9749 12.3826C85.4889 12.5755 85.9587 12.869 86.3564 13.2457C87.0962 14.0345 87.5076 15.0726 87.5076 16.1508C87.5076 17.229 87.0962 18.2671 86.3564 19.056C85.9606 19.436 85.4914 19.7324 84.9771 19.9271C84.4628 20.1218 83.9141 20.2109 83.3641 20.1889C82.5806 20.2062 81.8129 19.969 81.1775 19.5133V23.2656C81.1775 23.4631 81.0729 23.5566 80.8741 23.5566H79.1164C79.0763 23.5641 79.035 23.5617 78.996 23.5497C78.957 23.5377 78.9216 23.5165 78.8927 23.4878C78.8639 23.4592 78.8425 23.4239 78.8304 23.3852C78.8184 23.3465 78.816 23.3054 78.8235 23.2656V14.7424C78.8358 14.659 78.8283 14.574 78.8016 14.494C78.775 14.414 78.7298 14.3413 78.6699 14.2817C78.6099 14.2222 78.5367 14.1773 78.4562 14.1508C78.3757 14.1243 78.2901 14.1169 78.2062 14.1292H77.8609C77.6307 14.1292 77.5157 14.046 77.5157 13.8797V12.6532C77.5102 12.5773 77.5312 12.5018 77.5749 12.4394C77.6187 12.377 77.6827 12.3314 77.7563 12.3102C78.1182 12.1795 78.5012 12.1161 78.8862 12.1231C79.2702 12.0893 79.6555 12.1702 79.9929 12.3554C80.3303 12.5406 80.6043 12.8216 80.7799 13.1625C81.1169 12.8238 81.5199 12.557 81.9642 12.3783C82.4085 12.1995 82.8849 12.1127 83.3641 12.1231ZM81.732 17.7047C81.9185 17.8984 82.1426 18.0526 82.3908 18.1579C82.6389 18.2632 82.906 18.3175 83.1758 18.3175C83.4456 18.3175 83.7127 18.2632 83.9608 18.1579C84.209 18.0526 84.4331 17.8984 84.6196 17.7047C85.0126 17.2693 85.219 16.6988 85.195 16.1144C85.2224 15.5296 85.0155 14.9578 84.6196 14.5241C84.4331 14.3304 84.209 14.1763 83.9608 14.071C83.7127 13.9657 83.4456 13.9114 83.1758 13.9114C82.906 13.9114 82.6389 13.9657 82.3908 14.071C82.1426 14.1763 81.9185 14.3304 81.732 14.5241C81.3513 14.9655 81.1532 15.5337 81.1775 16.1144C81.1563 16.6947 81.354 17.2619 81.732 17.7047Z" fill="#1D2130"/>
<path d="M92.4454 20.1889C91.5061 20.2272 90.5748 20.004 89.7565 19.5444C89.4282 19.348 89.1486 19.0806 88.9385 18.7621C88.7284 18.4436 88.5932 18.0822 88.5429 17.7047C88.5429 17.4968 88.6161 17.3928 88.8463 17.3928H90.3843C90.4574 17.3957 90.5284 17.4185 90.5893 17.4589C90.6502 17.4992 90.6988 17.5555 90.7295 17.6215C90.9492 18.1828 91.5247 18.4634 92.4454 18.4634C92.7665 18.478 93.0863 18.4138 93.3765 18.2763C93.4767 18.2314 93.5627 18.1603 93.6253 18.0706C93.688 17.9809 93.7249 17.876 93.7322 17.767C93.7322 17.4968 93.5648 17.3097 93.23 17.185C92.8329 17.0536 92.4224 16.9665 92.0059 16.9251C91.5126 16.8696 91.0234 16.7828 90.5412 16.6653C90.0723 16.5598 89.646 16.3173 89.3171 15.9688C89.1235 15.732 88.9809 15.4582 88.8983 15.1643C88.8157 14.8704 88.7949 14.5628 88.8371 14.2606C88.8793 13.9584 88.9836 13.668 89.1436 13.4076C89.3036 13.1471 89.5158 12.9222 89.767 12.7467C90.5211 12.2694 91.4059 12.0369 92.2989 12.0814C93.1635 12.0524 94.0189 12.2649 94.768 12.6947C95.0699 12.8646 95.3299 13.0992 95.5289 13.3815C95.728 13.6638 95.8612 13.9867 95.9189 14.3266C95.9189 14.5345 95.8247 14.6384 95.6364 14.6384H94.088C94.0228 14.6422 93.9579 14.6264 93.9019 14.593C93.8459 14.5597 93.8014 14.5103 93.7741 14.4513C93.6706 14.2051 93.4758 14.0079 93.23 13.9004C92.9528 13.7563 92.6431 13.6847 92.3303 13.6925C92.0236 13.676 91.7177 13.7367 91.441 13.8692C91.3435 13.9066 91.2595 13.9721 91.1998 14.0573C91.1402 14.1425 91.1075 14.2436 91.1062 14.3474C91.1129 14.4895 91.1652 14.6258 91.2556 14.7361C91.346 14.8465 91.4697 14.9252 91.6084 14.9606C92.0102 15.1111 92.4278 15.2157 92.8534 15.2724C93.3427 15.3364 93.8282 15.4266 94.3077 15.5427C94.7766 15.6481 95.2029 15.8907 95.5318 16.2391C95.7077 16.431 95.8436 16.6557 95.9315 16.9001C96.0195 17.1445 96.0579 17.4039 96.0444 17.6631C96.0534 18.0224 95.9685 18.3779 95.798 18.6949C95.6275 19.0118 95.3771 19.2795 95.0714 19.4717C94.2897 19.9702 93.3737 20.2204 92.4454 20.1889Z" fill="#1D2130"/>
<path d="M107.103 19.6692C107.109 19.7061 107.108 19.7438 107.099 19.7801C107.09 19.8164 107.074 19.8505 107.051 19.8806C107.029 19.9106 107 19.9358 106.968 19.9549C106.936 19.9739 106.9 19.9863 106.863 19.9914C106.481 20.1153 106.082 20.1818 105.68 20.1889C105.283 20.2298 104.881 20.168 104.515 20.0096C104.148 19.8512 103.829 19.6015 103.588 19.2846C102.849 19.9158 101.893 20.2397 100.92 20.1889C100.468 20.2096 100.017 20.1361 99.5952 19.9732C99.1735 19.8103 98.7909 19.5616 98.4718 19.243C98.1549 18.9092 97.9091 18.5153 97.7491 18.0849C97.589 17.6544 97.5182 17.1963 97.5406 16.738V12.6739C97.5406 12.4764 97.6348 12.3725 97.8336 12.3725H99.5912C99.79 12.3725 99.8842 12.4764 99.8842 12.6739V16.4262C99.865 16.8937 100.026 17.3509 100.334 17.7047C100.488 17.8668 100.675 17.9942 100.882 18.0785C101.09 18.1628 101.313 18.2019 101.537 18.1932C101.767 18.2032 101.996 18.1679 102.211 18.0894C102.427 18.0109 102.624 17.8907 102.793 17.7359C102.952 17.5726 103.076 17.3786 103.157 17.1659C103.238 16.9531 103.274 16.7262 103.264 16.499V12.6739C103.264 12.4764 103.358 12.3725 103.556 12.3725H105.335C105.534 12.3725 105.628 12.4764 105.628 12.6739V17.5696C105.628 17.9749 105.806 18.1724 106.151 18.1724C106.313 18.1786 106.475 18.1611 106.632 18.1204C106.672 18.1094 106.714 18.1074 106.754 18.1147C106.794 18.1219 106.833 18.1381 106.866 18.1621C106.899 18.1861 106.926 18.2173 106.946 18.2533C106.965 18.2892 106.976 18.3291 106.978 18.3699L107.103 19.6692Z" fill="#1D2130"/>
<path d="M123.728 19.6692C123.737 19.7064 123.738 19.7452 123.73 19.7828C123.723 19.8205 123.707 19.8559 123.684 19.8867C123.661 19.9175 123.631 19.9429 123.597 19.961C123.563 19.9791 123.526 19.9895 123.487 19.9914C123.098 20.1171 122.693 20.1837 122.284 20.1889C121.662 20.2208 121.047 20.0452 120.537 19.69C120.316 19.5378 120.137 19.334 120.015 19.0964C119.892 18.8589 119.831 18.5951 119.836 18.3284V15.8857C119.858 15.4196 119.701 14.9626 119.396 14.6073C119.25 14.4448 119.068 14.3167 118.866 14.2323C118.663 14.1478 118.444 14.109 118.225 14.1187C118.027 14.1113 117.83 14.1486 117.649 14.2278C117.467 14.3071 117.307 14.4261 117.178 14.5761C116.902 14.9244 116.761 15.3596 116.781 15.8026V19.638C116.781 19.8355 116.687 19.9395 116.488 19.9395H114.72C114.679 19.9445 114.637 19.9402 114.598 19.9268C114.559 19.9135 114.523 19.8914 114.494 19.8624C114.465 19.8333 114.442 19.798 114.429 19.7591C114.416 19.7202 114.411 19.6788 114.416 19.638V15.8857C114.439 15.4247 114.294 14.971 114.008 14.6073C113.881 14.4545 113.721 14.3315 113.54 14.2471C113.359 14.1626 113.162 14.1188 112.962 14.1187C112.749 14.1102 112.536 14.1465 112.337 14.2253C112.139 14.3041 111.96 14.4237 111.811 14.5761C111.512 14.9133 111.358 15.3537 111.382 15.8026V19.638C111.387 19.6788 111.383 19.7202 111.37 19.7591C111.356 19.798 111.334 19.8333 111.305 19.8624C111.275 19.8914 111.24 19.9135 111.201 19.9268C111.162 19.9402 111.12 19.9445 111.079 19.9395H109.373C109.175 19.9395 109.081 19.8355 109.081 19.638V14.7424C109.093 14.659 109.085 14.574 109.059 14.494C109.032 14.414 108.987 14.3413 108.927 14.2817C108.867 14.2221 108.794 14.1773 108.713 14.1508C108.633 14.1243 108.547 14.1169 108.463 14.1291H108.118C107.888 14.1291 107.773 14.046 107.773 13.8797V12.6532C107.767 12.5773 107.788 12.5018 107.832 12.4394C107.876 12.377 107.94 12.3314 108.013 12.3102C108.375 12.1795 108.758 12.116 109.143 12.1231C109.513 12.0918 109.884 12.165 110.213 12.3342C110.543 12.5034 110.818 12.7617 111.006 13.0793C111.359 12.747 111.777 12.4905 112.234 12.326C112.691 12.1614 113.178 12.0924 113.663 12.1231C114.134 12.1002 114.605 12.1881 115.035 12.3795C115.466 12.5709 115.846 12.8605 116.143 13.2248C116.489 12.851 116.914 12.5582 117.388 12.3677C117.863 12.1771 118.373 12.0936 118.884 12.1231C119.34 12.1018 119.797 12.1749 120.223 12.3377C120.65 12.5005 121.038 12.7495 121.363 13.0689C121.681 13.402 121.928 13.7959 122.088 14.2265C122.248 14.6571 122.318 15.1155 122.295 15.5739V17.58C122.295 17.975 122.472 18.1725 122.807 18.1725C122.969 18.18 123.132 18.1624 123.288 18.1205C123.505 18.1205 123.62 18.2036 123.634 18.3699L123.728 19.6692Z" fill="#1D2130"/>
<path d="M1.04614 11.0213C1.81802 7.93911 3.60568 5.20207 6.12448 3.246C8.64327 1.28993 11.7484 0.227295 14.9454 0.227295C18.1424 0.227295 21.2475 1.28993 23.7663 3.246C26.2851 5.20207 28.0728 7.93911 28.8447 11.0213H27.5892C25.4713 10.9903 23.3968 11.6192 21.657 12.8195C21.5566 12.8917 21.4518 12.9577 21.3431 13.017H21.1967C21.088 12.9577 20.9832 12.8917 20.8828 12.8195C19.1276 11.6469 17.0605 11.0207 14.9454 11.0207C12.8303 11.0207 10.7632 11.6469 9.00801 12.8195C8.9076 12.8917 8.80278 12.9577 8.69414 13.017H8.54767C8.43902 12.9577 8.3342 12.8917 8.23379 12.8195C6.49404 11.6192 4.41955 10.9903 2.30163 11.0213H1.04614ZM25.3293 17.5384C25.9738 17.0398 26.7726 16.7789 27.5892 16.8005H29.2736V13.4639H27.5892C26.1508 13.4466 24.7454 13.8914 23.5821 14.732C22.9275 15.2115 22.1355 15.4702 21.3222 15.4702C20.5089 15.4702 19.717 15.2115 19.0623 14.732C17.8695 13.9071 16.4511 13.4649 14.9977 13.4649C13.5444 13.4649 12.1259 13.9071 10.9331 14.732C10.2785 15.2115 9.48651 15.4702 8.67321 15.4702C7.85991 15.4702 7.06797 15.2115 6.41334 14.732C5.2357 13.8807 3.81009 13.4353 2.35394 13.4639H0.617188V16.8005H2.30163C3.11823 16.7789 3.91701 17.0398 4.5615 17.5384C5.75213 18.3639 7.16903 18.8065 8.6209 18.8065C10.0728 18.8065 11.4897 18.3639 12.6803 17.5384C13.3256 17.0413 14.1238 16.7807 14.9402 16.8005C15.757 16.7772 16.5564 17.0382 17.2 17.5384C18.3928 18.3634 19.8113 18.8056 21.2647 18.8056C22.718 18.8056 24.1365 18.3634 25.3293 17.5384ZM25.3293 23.5047C25.9738 23.006 26.7726 22.7452 27.5892 22.7667H29.2736V19.4302H27.5892C26.1508 19.4129 24.7454 19.8577 23.5821 20.6983C22.9275 21.1777 22.1355 21.4364 21.3222 21.4364C20.5089 21.4364 19.717 21.1777 19.0623 20.6983C17.8695 19.8733 16.4511 19.4311 14.9977 19.4311C13.5444 19.4311 12.1259 19.8733 10.9331 20.6983C10.2785 21.1777 9.48651 21.4364 8.67321 21.4364C7.85991 21.4364 7.06797 21.1777 6.41334 20.6983C5.2357 19.8469 3.81009 19.4016 2.35394 19.4302H0.617188V22.7667H2.30163C3.11823 22.7452 3.91701 23.006 4.5615 23.5047C5.75213 24.3301 7.16903 24.7727 8.6209 24.7727C10.0728 24.7727 11.4897 24.3301 12.6803 23.5047C13.3256 23.0076 14.1238 22.7469 14.9402 22.7667C15.757 22.7434 16.5564 23.0045 17.2 23.5047C18.3928 24.3296 19.8113 24.7718 21.2647 24.7718C22.718 24.7718 24.1365 24.3296 25.3293 23.5047Z" fill="#1D2130"/>
</g>
</svg>
