<svg width="126" height="29" viewBox="0 0 126 29" fill="none" xmlns="http://www.w3.org/2000/svg">
<g opacity="0.6">
<path d="M37.0755 8.2888H40.231V21.0181H37.0755V8.2888ZM41.4828 16.2118C41.4828 13.0636 43.4182 11.1852 46.4055 11.1852C49.3928 11.1852 51.3282 13.0636 51.3282 16.2118C51.3282 19.36 49.4348 21.249 46.4055 21.249C43.3761 21.249 41.4828 19.4125 41.4828 16.2118ZM48.1621 16.2118C48.1621 14.4803 47.4784 13.4624 46.4055 13.4624C45.3326 13.4624 44.6594 14.5118 44.6594 16.2118C44.6594 17.9119 45.3221 18.9403 46.4055 18.9403C47.4889 18.9403 48.1621 17.9748 48.1621 16.2223V16.2118ZM52.5168 21.6373H55.5462C55.6903 21.9568 55.9341 22.2214 56.2411 22.3915C56.5481 22.5617 56.9021 22.6284 57.2502 22.5817C58.4493 22.5817 59.0804 21.9311 59.0804 20.9866V19.2236H59.0173C58.7659 19.764 58.3579 20.2167 57.8461 20.5235C57.3342 20.8303 56.7419 20.977 56.1457 20.9446C53.8421 20.9446 52.3169 19.1921 52.3169 16.1803C52.3169 13.1685 53.7685 11.2691 56.1878 11.2691C56.8027 11.2451 57.4103 11.4091 57.9292 11.7392C58.448 12.0693 58.8534 12.5497 59.0909 13.1161V11.3636H62.2465V20.9132C62.2465 23.2114 60.2164 24.6386 57.2186 24.6386C54.4312 24.6386 52.6956 23.3898 52.5168 21.6477V21.6373ZM59.0909 16.2013C59.0909 14.6692 58.3862 13.7037 57.2712 13.7037C56.1562 13.7037 55.4725 14.6587 55.4725 16.2013C55.4725 17.744 56.1457 18.615 57.2712 18.615C58.3967 18.615 59.0909 17.7649 59.0909 16.2118V16.2013ZM63.4351 16.2013C63.4351 13.0531 65.3705 11.1747 68.3578 11.1747C71.3451 11.1747 73.2911 13.0531 73.2911 16.2013C73.2911 19.3495 71.3977 21.2385 68.3578 21.2385C65.318 21.2385 63.4351 19.4125 63.4351 16.2118V16.2013ZM70.1144 16.2013C70.1144 14.4698 69.4307 13.4519 68.3578 13.4519C67.2849 13.4519 66.6643 14.5118 66.6643 16.2223C66.6643 17.9328 67.327 18.9508 68.3999 18.9508C69.4728 18.9508 70.1144 17.9748 70.1144 16.2223V16.2013ZM74.4902 9.07585C74.4819 8.75799 74.5684 8.44484 74.7388 8.1761C74.9091 7.90735 75.1556 7.69511 75.447 7.56629C75.7383 7.43746 76.0615 7.39785 76.3755 7.45248C76.6894 7.5071 76.9801 7.6535 77.2106 7.87312C77.441 8.09274 77.601 8.37568 77.6701 8.68609C77.7392 8.99649 77.7143 9.32037 77.5987 9.61668C77.4831 9.91298 77.2819 10.1684 77.0206 10.3505C76.7593 10.5325 76.4497 10.6331 76.1311 10.6395C75.9199 10.6539 75.7079 10.6247 75.5086 10.5535C75.3092 10.4824 75.1267 10.3709 74.9726 10.226C74.8185 10.0811 74.6961 9.90605 74.6131 9.71173C74.5301 9.51741 74.4882 9.30807 74.4902 9.09684V9.07585ZM74.4902 11.3845H77.6458V21.0181H74.4902V11.3845ZM89.1005 16.2013C89.1005 19.3495 87.7016 21.144 85.3033 21.144C84.6884 21.1834 84.0761 21.0334 83.5494 20.7144C83.0226 20.3953 82.6068 19.9226 82.3581 19.36H82.295V24.1034H79.1394V11.3636H82.295V13.0846H82.3581C82.5952 12.5128 83.0031 12.0277 83.5263 11.6954C84.0495 11.363 84.6626 11.1995 85.2823 11.2271C87.7016 11.2691 89.1426 13.0741 89.1426 16.2223L89.1005 16.2013ZM85.945 16.2013C85.945 14.6692 85.2402 13.6932 84.1358 13.6932C83.0313 13.6932 82.3266 14.6797 82.316 16.2013C82.3055 17.723 83.0313 18.6989 84.1358 18.6989C85.2402 18.6989 85.945 17.744 85.945 16.2223V16.2013ZM94.5176 11.1642C97.1368 11.1642 98.7251 12.4025 98.7987 14.3859H95.9271C95.9271 13.7037 95.3591 13.2735 94.4861 13.2735C93.613 13.2735 93.2238 13.6093 93.2238 14.1025C93.2238 14.5957 93.571 14.7531 94.2757 14.9001L96.2953 15.3093C98.2202 15.7186 99.0406 16.4952 99.0406 17.9538C99.0406 19.9477 97.2209 21.228 94.5387 21.228C91.8564 21.228 90.0998 19.9477 89.9631 17.9853H93.003C93.0976 18.6989 93.6656 19.1187 94.5913 19.1187C95.5169 19.1187 95.9376 18.8143 95.9376 18.3106C95.9376 17.8069 95.6431 17.702 94.8858 17.5446L93.0661 17.1563C91.1832 16.768 90.1945 15.7711 90.1945 14.3019C90.2155 12.413 91.909 11.1852 94.5176 11.1852V11.1642ZM109.57 20.9971H106.53V19.2026H106.467C106.3 19.8051 105.931 20.3325 105.422 20.6971C104.913 21.0617 104.294 21.2416 103.669 21.207C103.189 21.2342 102.71 21.1584 102.262 20.9847C101.815 20.8111 101.41 20.5436 101.075 20.2004C100.74 19.8572 100.482 19.4462 100.32 18.9953C100.158 18.5444 100.095 18.064 100.135 17.5865V11.3636H103.29V16.8625C103.29 18.0063 103.879 18.615 104.857 18.615C105.087 18.6154 105.314 18.567 105.523 18.4728C105.732 18.3787 105.918 18.2411 106.07 18.0691C106.221 17.8972 106.334 17.695 106.401 17.476C106.467 17.257 106.486 17.0264 106.456 16.7995V11.3636H109.612L109.57 20.9971ZM111.095 11.3636H114.145V13.221H114.208C114.376 12.6265 114.736 12.1042 115.233 11.7358C115.73 11.3674 116.335 11.1737 116.954 11.1852C117.583 11.1349 118.209 11.3229 118.706 11.7117C119.203 12.1006 119.535 12.6619 119.636 13.284H119.699C119.89 12.6553 120.285 12.1079 120.822 11.7279C121.359 11.3479 122.008 11.157 122.665 11.1852C123.095 11.1708 123.522 11.2466 123.92 11.4078C124.318 11.569 124.677 11.8118 124.975 12.1206C125.272 12.4294 125.501 12.7972 125.647 13.2001C125.793 13.603 125.852 14.0321 125.821 14.4593V21.0181H122.665V15.2988C122.665 14.2494 122.192 13.7667 121.309 13.7667C121.112 13.765 120.916 13.8056 120.736 13.8855C120.556 13.9655 120.396 14.083 120.265 14.2302C120.134 14.3774 120.037 14.5509 119.979 14.7388C119.922 14.9268 119.905 15.1249 119.931 15.3198V21.0181H116.933V15.2569C116.933 14.2914 116.459 13.7667 115.597 13.7667C115.398 13.7668 115.201 13.809 115.019 13.8906C114.837 13.9721 114.675 14.0912 114.543 14.24C114.411 14.3887 114.311 14.5638 114.252 14.7535C114.193 14.9433 114.174 15.1434 114.198 15.3408V21.0181H111.042L111.095 11.3636Z" fill="#1D2130"/>
<path d="M28.2504 8.86602C27.7151 7.64489 27.0066 6.50689 26.1466 5.48694C24.8754 3.93417 23.289 2.66759 21.4918 1.77057C19.6946 0.87355 17.7273 0.366424 15.7195 0.282567C13.7117 0.198711 11.7089 0.540025 9.8428 1.28405C7.97673 2.02807 6.28976 3.15794 4.89291 4.59927C3.49606 6.04061 2.42101 7.76074 1.7385 9.64645C1.056 11.5322 0.781526 13.5407 0.933143 15.5399C1.08476 17.539 1.65903 19.4835 2.61816 21.2453C3.57729 23.0071 4.89953 24.5462 6.49785 25.7615C7.52342 26.5568 8.65664 27.2034 9.86381 27.6819C11.5563 28.3739 13.3677 28.7303 15.1968 28.7313C18.9723 28.723 22.5905 27.2215 25.2583 24.556C27.926 21.8906 29.4257 18.2786 29.4284 14.5118C29.4312 12.5689 29.0301 10.6465 28.2504 8.86602ZM15.1862 3.16774C16.8288 3.16757 18.4515 3.52573 19.9407 4.21715C19.5775 4.37369 19.1957 4.48302 18.8046 4.54247C17.5178 4.72831 16.3257 5.32436 15.4063 6.24164C14.4868 7.15892 13.8894 8.34824 13.7031 9.63209C13.6213 10.3521 13.2931 11.022 12.7738 11.5286C12.2545 12.0352 11.5759 12.3476 10.8526 12.413C9.56571 12.5989 8.3736 13.1949 7.45418 14.1122C6.53475 15.0295 5.93731 16.2188 5.75103 17.5026C5.68796 18.1873 5.39518 18.8306 4.92006 19.3286C4.1003 17.6005 3.73204 15.6936 3.84955 13.7854C3.96707 11.8771 4.56653 10.0295 5.59217 8.41452C6.6178 6.79953 8.03627 5.46964 9.71557 4.5486C11.3949 3.62757 13.2804 3.14533 15.1968 3.14675L15.1862 3.16774ZM6.48734 21.8577C6.61356 21.7423 6.73978 21.6373 6.86601 21.5114C7.8018 20.6062 8.40248 19.4114 8.57002 18.1218C8.63795 17.3969 8.96237 16.7198 9.48514 16.2119C9.98819 15.6894 10.6653 15.3685 11.389 15.3094C12.6759 15.1235 13.868 14.5275 14.7874 13.6102C15.7068 12.6929 16.3043 11.5036 16.4905 10.2198C16.536 9.46158 16.8622 8.74728 17.4057 8.21539C17.9211 7.70312 18.6047 7.39382 19.3306 7.34438C20.5128 7.18211 21.6154 6.65777 22.4862 5.84373C23.4777 6.66444 24.3178 7.65175 24.9686 8.76109C24.9286 8.81497 24.8827 8.86425 24.8318 8.908C24.3297 9.43501 23.6535 9.76302 22.9279 9.83148C21.6398 10.0141 20.4459 10.6091 19.5258 11.5269C18.6058 12.4448 18.0094 13.6359 17.8264 14.9211C17.7523 15.6435 17.4301 16.3182 16.9144 16.8308C16.3987 17.3433 15.7213 17.6623 14.9969 17.7335C13.7063 17.9179 12.5097 18.5128 11.585 19.4297C10.6602 20.3466 10.0566 21.5367 9.86381 22.8231C9.8072 23.336 9.63066 23.8285 9.3484 24.2608C8.26919 23.6216 7.30262 22.8097 6.48734 21.8577ZM15.1862 25.9084C14.1189 25.9096 13.0566 25.7612 12.0306 25.4677C12.3816 24.8149 12.6098 24.1036 12.7038 23.3688C12.7776 22.648 13.0982 21.9746 13.6118 21.4623C14.1253 20.9499 14.8003 20.63 15.5228 20.5564C16.8116 20.3727 18.0061 19.7775 18.9276 18.8601C19.8491 17.9426 20.448 16.7522 20.6349 15.4668C20.7086 14.746 21.0293 14.0726 21.5428 13.5602C22.0564 13.0479 22.7314 12.7279 23.4539 12.6544C24.4237 12.5285 25.3481 12.1683 26.1466 11.605C26.5901 13.2818 26.6426 15.0377 26.3002 16.738C25.9578 18.4383 25.2296 20.0377 24.1714 21.4135C23.1132 22.7894 21.7532 23.9052 20.1957 24.6752C18.6381 25.4453 16.9245 25.8492 15.1862 25.8559V25.9084Z" fill="#1D2130"/>
</g>
</svg>
