<svg width="134" height="31" viewBox="0 0 134 31" fill="none" xmlns="http://www.w3.org/2000/svg">
<g opacity="0.6">
<path d="M38.382 9.47656H41.7585V23.1189H38.382V9.47656ZM43.1049 17.9873C43.1049 14.6082 45.2086 12.5828 48.3642 12.5828C51.5198 12.5828 53.6235 14.6082 53.6235 17.9873C53.6235 21.3663 51.5934 23.4127 48.3642 23.4127C45.135 23.4127 43.1049 21.4398 43.1049 17.9873ZM50.2786 17.9873C50.2786 16.1298 49.5528 15.0384 48.3957 15.0384C47.2387 15.0384 46.5234 16.0878 46.5234 17.9873C46.5234 19.8867 47.2387 20.9256 48.3957 20.9256C49.5528 20.9256 50.2996 19.8867 50.2996 17.9977L50.2786 17.9873ZM54.9699 23.822H58.2306C58.3791 24.1722 58.6383 24.4644 58.9688 24.6538C59.2993 24.8433 59.6828 24.9197 60.0609 24.8714C61.3547 24.8714 62.0279 24.1788 62.0279 23.1503V21.2614H62.0384C61.7598 21.8496 61.3092 22.3398 60.7459 22.6676C60.1827 22.9954 59.5331 23.1454 58.8828 23.0979C56.4109 23.0979 54.77 21.2194 54.77 17.9873C54.77 14.7551 56.3373 12.7402 58.9775 12.7402C59.6445 12.7046 60.3061 12.8762 60.8713 13.2315C61.4364 13.5867 61.8773 14.108 62.133 14.7236H62.0384V12.8242H65.3833V23.0454C65.3833 25.5115 63.1954 27.0541 59.9767 27.0541C57.0526 27.0436 55.1802 25.7109 54.9909 23.8325L54.9699 23.822ZM62.0384 17.9873C62.0384 16.3397 61.281 15.3008 60.0819 15.3008C58.8828 15.3008 58.1465 16.3502 58.1465 17.9873C58.1465 19.6243 58.8723 20.5898 60.0819 20.5898C61.2916 20.5898 62.0384 19.6978 62.0384 17.9873ZM66.7192 17.9873C66.7192 14.6082 68.8229 12.5828 71.9785 12.5828C75.1341 12.5828 77.2378 14.6082 77.2378 17.9873C77.2378 21.3663 75.1972 23.4127 71.9785 23.4127C68.7598 23.4127 66.7402 21.4398 66.7402 17.9873H66.7192ZM73.8929 17.9873C73.8929 16.1298 73.1566 15.0384 72.01 15.0384C70.8635 15.0384 70.1377 16.0878 70.1377 17.9873C70.1377 19.8867 70.853 20.9256 72.01 20.9256C73.1671 20.9256 73.9139 19.8867 73.9139 17.9977L73.8929 17.9873ZM78.6052 10.3371C78.5905 9.99394 78.6791 9.65427 78.8595 9.36175C79.0399 9.06923 79.3039 8.83725 79.6175 8.69566C79.9311 8.55406 80.2801 8.50933 80.6194 8.5672C80.9587 8.62508 81.2729 8.78292 81.5216 9.02043C81.7703 9.25793 81.942 9.56423 82.0148 9.89992C82.0875 10.2356 82.0579 10.5853 81.9298 10.9041C81.8017 11.2229 81.5809 11.4962 81.2959 11.6887C81.0108 11.8813 80.6745 11.9843 80.3303 11.9846C80.1103 11.9902 79.8913 11.9521 79.6862 11.8726C79.481 11.7931 79.2938 11.6737 79.1353 11.5215C78.9767 11.3692 78.8501 11.187 78.7627 10.9855C78.6754 10.7839 78.629 10.5671 78.6262 10.3476L78.6052 10.3371ZM78.6052 12.8137H82.0238V23.1608H78.6578L78.6052 12.8137ZM94.32 17.9873C94.32 21.3559 92.8053 23.3077 90.2283 23.3077C89.5685 23.3483 88.9122 23.186 88.3478 22.8425C87.7835 22.4991 87.3384 21.9912 87.0727 21.3873H87.0096V26.4875H83.6331V12.8452H86.9885V14.6921H87.0517C87.3083 14.0764 87.749 13.5546 88.3137 13.1978C88.8784 12.841 89.5396 12.6665 90.2072 12.6982C92.8579 12.6773 94.3831 14.6187 94.3831 17.9977L94.32 17.9873ZM90.8804 17.9873C90.8804 16.3502 90.1126 15.2903 88.924 15.2903C87.7354 15.2903 86.9885 16.3397 86.978 17.9873C86.9675 19.6348 87.7354 20.6737 88.924 20.6737C90.1126 20.6737 90.9436 19.6978 90.9436 17.9977L90.8804 17.9873ZM100.084 12.5723C102.914 12.5723 104.67 13.9051 104.691 16.0459H101.609C101.609 15.3008 100.989 14.839 100.063 14.839C99.1376 14.839 98.6958 15.1958 98.6958 15.731C98.6958 16.2662 99.085 16.4341 99.8633 16.5915L102.03 17.0323C104.134 17.473 104.975 18.3126 104.975 19.8762C104.975 21.975 103.029 23.4022 100.137 23.4022C97.2442 23.4022 95.3614 22.017 95.2246 19.9077H98.4959C98.5906 20.6737 99.2007 21.125 100.189 21.125C101.178 21.125 101.641 20.8102 101.641 20.254C101.641 19.6978 101.325 19.6033 100.515 19.4354L98.559 19.0262C96.5289 18.5959 95.4666 17.536 95.4666 15.9514C95.5297 13.8946 97.2968 12.5828 100.147 12.5828L100.084 12.5723ZM116.283 23.1503H113.012V21.2089H112.949C112.765 21.8565 112.367 22.4225 111.818 22.8135C111.269 23.2046 110.603 23.3974 109.93 23.3602C109.421 23.3767 108.915 23.2858 108.444 23.0934C107.974 22.901 107.549 22.6115 107.198 22.2438C106.848 21.8762 106.579 21.4387 106.41 20.9601C106.241 20.4816 106.175 19.9727 106.217 19.4669V12.8242H109.593V18.7428C109.593 19.9601 110.235 20.6213 111.287 20.6213C111.533 20.6194 111.777 20.5648 112.001 20.461C112.224 20.3572 112.423 20.2068 112.584 20.0197C112.744 19.8327 112.863 19.6135 112.931 19.377C113 19.1404 113.016 18.8919 112.98 18.6484V12.8242H116.346L116.283 23.1503ZM117.913 12.8137H121.195V14.8076H121.269C121.45 14.1688 121.839 13.6081 122.373 13.2131C122.908 12.8182 123.559 12.6113 124.224 12.6248C124.892 12.5669 125.558 12.7595 126.091 13.1652C126.624 13.5708 126.986 14.1601 127.107 14.818H127.254C127.464 14.1566 127.887 13.583 128.458 13.1864C129.029 12.7898 129.715 12.5923 130.409 12.6248C130.871 12.6073 131.331 12.6872 131.76 12.8594C132.189 13.0316 132.576 13.2921 132.897 13.624C133.217 13.9559 133.464 14.3515 133.621 14.7852C133.778 15.2188 133.841 15.6806 133.807 16.1403V23.1608H130.409V17.0008C130.409 15.9514 129.915 15.3637 128.958 15.3637C128.746 15.3603 128.535 15.4026 128.341 15.4879C128.146 15.5732 127.973 15.6994 127.832 15.8579C127.691 16.0164 127.586 16.2034 127.525 16.4061C127.463 16.6088 127.446 16.8224 127.475 17.0323V23.1608H124.256V16.9693C124.256 15.9199 123.741 15.3637 122.815 15.3637C122.6 15.362 122.388 15.4061 122.192 15.4931C121.996 15.58 121.821 15.7078 121.678 15.8678C121.536 16.0278 121.429 16.2164 121.366 16.4209C121.303 16.6253 121.284 16.841 121.311 17.0533V23.1608H117.934L117.913 12.8137Z" fill="#1D2130"/>
<path d="M31.7026 10.3687C31.7027 8.28001 31.0705 6.24003 29.8888 4.51591C28.7071 2.79179 27.0311 1.46393 25.0801 0.706256C23.1292 -0.0514219 20.9944 -0.203588 18.9553 0.269686C16.9163 0.742961 15.068 1.81961 13.6526 3.35861H0.525391V31H28.2419V18.0818C29.3298 17.1111 30.2003 15.9224 30.7966 14.5933C31.3929 13.2643 31.7016 11.8248 31.7026 10.3687ZM26.3696 10.3687C26.3717 11.3695 26.0761 12.3485 25.5203 13.1817C24.9645 14.0148 24.1734 14.6648 23.2472 15.0492C22.3209 15.4337 21.3012 15.5354 20.317 15.3414C19.3329 15.1474 18.4285 14.6665 17.7184 13.9595C17.0083 13.2525 16.5244 12.3513 16.3279 11.3698C16.1314 10.3883 16.2312 9.37078 16.6146 8.44591C16.998 7.52104 17.6479 6.73045 18.4818 6.17418C19.3158 5.61792 20.2965 5.321 21.2997 5.321C22.6425 5.321 23.9305 5.85247 24.881 6.79878C25.8315 7.7451 26.3668 9.02897 26.3696 10.3687ZM22.909 25.6795H5.85833V8.67911H11.0545C10.9542 9.23682 10.9014 9.80203 10.8967 10.3687C10.8995 13.1204 11.9964 15.7586 13.9468 17.7044C15.8971 19.6502 18.5415 20.7445 21.2997 20.7473C21.8389 20.7444 22.377 20.6988 22.909 20.6109V25.6795Z" fill="#1D2130"/>
</g>
</svg>
