<svg width="138" height="31" viewBox="0 0 138 31" fill="none" xmlns="http://www.w3.org/2000/svg">
<g opacity="0.6">
<path d="M33.5997 7.28961H36.7553V22.598H33.5997V7.28961Z" fill="#1D2130"/>
<path d="M38.5224 17.3539C38.5225 16.2525 38.8471 15.1759 39.4553 14.2606C40.0635 13.3453 40.9279 12.6325 41.9388 12.2124C42.9497 11.7924 44.0616 11.6842 45.1337 11.9014C46.2058 12.1185 47.1897 12.6514 47.9607 13.4325C48.7318 14.2135 49.2552 15.2075 49.4647 16.2885C49.6742 17.3694 49.5603 18.4887 49.1375 19.5045C48.7147 20.5202 48.002 21.3866 47.0897 21.9939C46.1774 22.6012 45.1067 22.9221 44.0132 22.9158C43.2879 22.9215 42.5687 22.7813 41.8979 22.5034C41.2271 22.2255 40.6182 21.8155 40.1068 21.2975C39.5954 20.7795 39.1918 20.1638 38.9198 19.4866C38.6477 18.8094 38.5126 18.0844 38.5224 17.3539ZM46.4324 17.3539C46.42 16.8791 46.2689 16.4185 45.9979 16.0297C45.727 15.641 45.3482 15.3413 44.9091 15.1682C44.4699 14.9951 43.9898 14.9562 43.5288 15.0565C43.0678 15.1567 42.6464 15.3916 42.3173 15.7318C41.9882 16.072 41.766 16.5024 41.6785 16.9691C41.5909 17.4359 41.642 17.9182 41.8252 18.3559C42.0084 18.7936 42.3157 19.1671 42.7086 19.4298C43.1015 19.6925 43.5626 19.8327 44.0342 19.8329C44.3553 19.8392 44.6742 19.7787 44.9711 19.6553C45.2679 19.5318 45.5363 19.348 45.7594 19.1153C45.9825 18.8827 46.1555 18.6062 46.2677 18.3031C46.3799 18 46.4288 17.6769 46.4114 17.3539H46.4324Z" fill="#1D2130"/>
<path d="M61.9895 12.1099V22.0788C61.9895 25.5961 59.2547 27.0898 56.4883 27.0898C55.5125 27.1705 54.5337 26.9752 53.6622 26.526C52.7906 26.0768 52.0609 25.3915 51.555 24.5473L54.2162 23.0005C54.4319 23.4384 54.7749 23.7997 55.1996 24.0363C55.6243 24.2729 56.1105 24.3735 56.5935 24.3248C56.9011 24.363 57.2133 24.3322 57.5078 24.2347C57.8022 24.1372 58.0716 23.9753 58.2968 23.7607C58.5219 23.5462 58.6971 23.2841 58.81 22.9934C58.9229 22.7026 58.9705 22.3903 58.9496 22.0788V21.1148C58.5824 21.5632 58.1165 21.9192 57.5888 22.1546C57.0611 22.39 56.4862 22.4983 55.9097 22.4708C54.5149 22.4708 53.1772 21.9128 52.1909 20.9194C51.2045 19.926 50.6504 18.5787 50.6504 17.1738C50.6504 15.769 51.2045 14.4216 52.1909 13.4283C53.1772 12.4349 54.5149 11.8768 55.9097 11.8768C56.4862 11.8494 57.0611 11.9576 57.5888 12.193C58.1165 12.4284 58.5824 12.7844 58.9496 13.2328V12.1734L61.9895 12.1099ZM58.9496 17.142C58.9706 16.6352 58.8406 16.1336 58.5762 15.7018C58.3119 15.27 57.9254 14.9276 57.4663 14.7189C57.0073 14.5101 56.4967 14.4444 56.0003 14.5302C55.5039 14.616 55.0443 14.8494 54.6807 15.2004C54.317 15.5514 54.0659 16.0039 53.9597 16.4998C53.8534 16.9957 53.8969 17.5122 54.0845 17.983C54.2721 18.4538 54.5952 18.8573 55.0123 19.1417C55.4294 19.426 55.9215 19.5782 56.4252 19.5787C56.7538 19.6025 57.0838 19.5567 57.3938 19.4441C57.7037 19.3315 57.9868 19.1547 58.2247 18.9251C58.4626 18.6954 58.6501 18.4181 58.7749 18.111C58.8998 17.8039 58.9593 17.4738 58.9496 17.142Z" fill="#1D2130"/>
<path d="M63.7671 17.3539C63.7671 16.2534 64.0913 15.1777 64.6985 14.2628C65.3058 13.3479 66.1689 12.6351 67.1785 12.2144C68.1882 11.7938 69.2991 11.6842 70.3706 11.8997C71.4421 12.1152 72.4261 12.6459 73.1979 13.4248C73.9698 14.2037 74.4949 15.1958 74.7068 16.2754C74.9187 17.3549 74.8079 18.4736 74.3883 19.4897C73.9687 20.5058 73.2593 21.3737 72.3497 21.9836C71.4402 22.5934 70.3715 22.9179 69.2789 22.9158C68.5522 22.9229 67.8315 22.7838 67.1589 22.5066C66.4863 22.2295 65.8754 21.8199 65.362 21.3019C64.8487 20.7839 64.4432 20.1678 64.1693 19.4899C63.8954 18.812 63.7587 18.0858 63.7671 17.3539ZM71.6771 17.3539C71.6647 16.8786 71.5133 16.4176 71.2419 16.0286C70.9704 15.6397 70.5911 15.34 70.1513 15.1672C69.7115 14.9944 69.2309 14.9562 68.7696 15.0573C68.3084 15.1584 67.887 15.3944 67.5583 15.7357C67.2297 16.0769 67.0083 16.5083 66.9219 16.9757C66.8356 17.4431 66.8881 17.9258 67.0729 18.3632C67.2578 18.8007 67.5667 19.1735 67.9609 19.435C68.3552 19.6964 68.8173 19.8348 69.2894 19.8329C69.6105 19.8392 69.9294 19.7787 70.2262 19.6553C70.5231 19.5318 70.7914 19.348 71.0145 19.1153C71.2377 18.8827 71.4107 18.6062 71.5229 18.3031C71.6351 18 71.684 17.6769 71.6666 17.3539H71.6771Z" fill="#1D2130"/>
<path d="M76.2528 9.30242C76.2528 8.92945 76.3626 8.56486 76.5683 8.25475C76.774 7.94465 77.0665 7.70295 77.4086 7.56022C77.7507 7.41749 78.1272 7.38015 78.4903 7.45291C78.8535 7.52567 79.1872 7.70527 79.449 7.969C79.7109 8.23272 79.8892 8.56873 79.9614 8.93452C80.0337 9.30032 79.9966 9.67948 79.8549 10.0241C79.7132 10.3686 79.4732 10.6631 79.1653 10.8703C78.8574 11.0776 78.4954 11.1882 78.1251 11.1882C77.6302 11.1826 77.1571 10.9822 76.8072 10.6297C76.4573 10.2773 76.2582 9.80083 76.2528 9.30242ZM76.5578 12.1098H79.7134V22.5979H76.5578V12.1098Z" fill="#1D2130"/>
<path d="M93.2193 17.3539C93.2546 18.0515 93.1527 18.7491 92.9193 19.4068C92.6859 20.0645 92.3257 20.6692 91.8594 21.1861C91.393 21.7031 90.8298 22.122 90.2021 22.4188C89.5744 22.7157 88.8946 22.8846 88.2019 22.9158C87.614 22.9552 87.0249 22.8604 86.4785 22.6384C85.9321 22.4165 85.4425 22.0731 85.0463 21.6339V26.8144H81.8907V12.1099H85.0463V13.0952C85.443 12.6573 85.933 12.3155 86.4794 12.0953C87.0259 11.8752 87.6147 11.7824 88.2019 11.8239C88.8918 11.8552 89.5689 12.023 90.1945 12.3179C90.8201 12.6127 91.3818 13.0288 91.8477 13.5423C92.3137 14.0558 92.6746 14.6567 92.9099 15.3107C93.1452 15.9647 93.2503 16.659 93.2193 17.3539ZM90.0637 17.3539C90.0512 16.8619 89.8949 16.3845 89.6142 15.9816C89.3335 15.5787 88.941 15.2681 88.4859 15.0889C88.0307 14.9097 87.5331 14.8698 87.0556 14.9742C86.578 15.0786 86.1416 15.3227 85.8012 15.6758C85.4607 16.0289 85.2313 16.4753 85.1417 16.9592C85.0521 17.443 85.1064 17.9428 85.2976 18.3957C85.4888 18.8487 85.8085 19.2347 86.2166 19.5055C86.6247 19.7762 87.1031 19.9196 87.5918 19.9177C87.9265 19.932 88.2605 19.8749 88.5717 19.7501C88.883 19.6253 89.1646 19.4356 89.398 19.1936C89.6314 18.9515 89.8114 18.6625 89.9261 18.3454C90.0408 18.0284 90.0877 17.6905 90.0637 17.3539Z" fill="#1D2130"/>
<path d="M102.823 19.4515C102.823 21.867 100.719 22.8946 98.4891 22.8946C97.5796 22.977 96.6664 22.7829 95.8676 22.3372C95.0688 21.8915 94.4211 21.2147 94.0081 20.3944L96.7219 18.8477C96.8294 19.2257 97.0626 19.555 97.3823 19.7807C97.7021 20.0063 98.0891 20.1145 98.4785 20.0872C99.2254 20.0872 99.604 19.8541 99.604 19.4303C99.604 18.2756 94.4815 18.89 94.4815 15.2563C94.4815 12.968 96.3959 11.8238 98.5627 11.8238C99.3863 11.7867 100.205 11.9749 100.931 12.3685C101.657 12.762 102.263 13.3463 102.686 14.0592L99.9722 15.4999C99.8523 15.2266 99.6564 14.9942 99.4081 14.8306C99.1599 14.667 98.8699 14.5794 98.5732 14.5783C98.0262 14.5783 97.7002 14.7901 97.7002 15.1609C97.7002 16.3687 102.823 15.5741 102.823 19.4515Z" fill="#1D2130"/>
<path d="M114.256 12.1099V22.598H111.101V21.6128C110.742 22.0489 110.287 22.394 109.772 22.6204C109.257 22.8467 108.696 22.9479 108.135 22.9158C106.031 22.9158 104.232 21.4009 104.232 18.5723V12.1099H107.388V18.0955C107.363 18.3458 107.392 18.5985 107.474 18.8361C107.556 19.0738 107.688 19.2908 107.861 19.4721C108.034 19.6534 108.244 19.7947 108.476 19.8863C108.709 19.9779 108.958 20.0175 109.207 20.0025C110.343 20.0025 111.143 19.3244 111.143 17.8837V12.1099H114.256Z" fill="#1D2130"/>
<path d="M132.138 16.1568V22.5979H128.982V16.4322C128.982 15.3728 128.488 14.716 127.489 14.716C126.49 14.716 125.858 15.447 125.858 16.6865V22.5979H122.703V16.4322C122.703 15.3728 122.208 14.716 121.209 14.716C120.21 14.716 119.579 15.447 119.579 16.6865V22.5979H116.423V12.1099H119.579V13.0739C119.906 12.648 120.332 12.3107 120.821 12.0925C121.309 11.8742 121.844 11.7819 122.377 11.8238C122.91 11.7958 123.442 11.908 123.92 12.1495C124.397 12.3909 124.805 12.7533 125.101 13.201C125.448 12.7332 125.906 12.3616 126.434 12.1207C126.962 11.8799 127.542 11.7777 128.12 11.8238C130.581 11.8238 132.138 13.54 132.138 16.1568Z" fill="#1D2130"/>
<path d="M14.803 4.53517V0.0327148H0.708008V30.9672H14.803V26.4648C11.9156 26.4648 9.14651 25.3096 7.10485 23.2533C5.06318 21.197 3.91619 18.408 3.91619 15.5C3.91619 12.5919 5.06318 9.80299 7.10485 7.74669C9.14651 5.69039 11.9156 4.53517 14.803 4.53517Z" fill="#1D2130"/>
<path d="M14.803 4.53517V26.4648C17.6903 26.4648 20.4593 25.3096 22.501 23.2533C24.5427 21.197 25.6897 18.408 25.6897 15.5C25.6897 12.5919 24.5427 9.80299 22.501 7.74669C20.4593 5.69039 17.6903 4.53517 14.803 4.53517Z" fill="#1D2130"/>
<path d="M134.789 12.0463C136.067 12.0463 137.103 11.0028 137.103 9.71562C137.103 8.42842 136.067 7.38493 134.789 7.38493C133.511 7.38493 132.475 8.42842 132.475 9.71562C132.475 11.0028 133.511 12.0463 134.789 12.0463Z" fill="#1D2130"/>
</g>
</svg>
